<?xml version="1.0" encoding="UTF-8"?>
<svg width="700pt" height="700pt" version="1.1" viewBox="0 0 700 700" xmlns="http://www.w3.org/2000/svg" xmlns:xlink="http://www.w3.org/1999/xlink">
 <defs>
  <symbol id="t" overflow="visible">
   <path d="m3.3125-0.20312c-0.17969 0.09375-0.35938 0.16406-0.54688 0.20312-0.17969 0.039062-0.36719 0.0625-0.5625 0.0625-0.60547 0-1.0859-0.16406-1.4375-0.5-0.34375-0.33203-0.51562-0.78516-0.51562-1.3594 0-0.57031 0.17188-1.0234 0.51562-1.3594 0.35156-0.34375 0.83203-0.51562 1.4375-0.51562 0.19531 0 0.38281 0.027344 0.5625 0.078125 0.1875 0.042969 0.36719 0.10938 0.54688 0.20312v0.73438c-0.17969-0.11328-0.35156-0.19531-0.51562-0.25-0.16797-0.050781-0.34375-0.078125-0.53125-0.078125-0.32422 0-0.58594 0.10547-0.78125 0.3125-0.1875 0.21094-0.28125 0.5-0.28125 0.875s0.09375 0.66797 0.28125 0.875c0.19531 0.21094 0.45703 0.3125 0.78125 0.3125 0.1875 0 0.36328-0.023437 0.53125-0.078125 0.16406-0.050781 0.33594-0.13281 0.51562-0.25z"/>
  </symbol>
  <symbol id="c" overflow="visible">
   <path d="m2.4219-1.9688c-0.074219-0.03125-0.15234-0.050781-0.23438-0.0625-0.074219-0.019531-0.14844-0.03125-0.21875-0.03125-0.21875 0-0.39062 0.074219-0.51562 0.21875-0.11719 0.13672-0.17188 0.33594-0.17188 0.59375v1.25h-0.85938v-2.7031h0.85938v0.45312c0.10156-0.17578 0.22656-0.30469 0.375-0.39062 0.14453-0.082031 0.31641-0.125 0.51562-0.125h0.09375c0.039063 0 0.09375 0.007813 0.15625 0.015625z"/>
  </symbol>
  <symbol id="a" overflow="visible">
   <path d="m3.1094-1.3594v0.25h-2.0156c0.019531 0.19922 0.09375 0.35156 0.21875 0.45312 0.125 0.10547 0.30078 0.15625 0.53125 0.15625 0.17578 0 0.35938-0.023438 0.54688-0.078125 0.19531-0.0625 0.39453-0.14453 0.59375-0.25v0.67188c-0.21094 0.074219-0.41797 0.125-0.625 0.15625-0.19922 0.039062-0.40234 0.0625-0.60938 0.0625-0.48047 0-0.85547-0.11719-1.125-0.35938-0.27344-0.25-0.40625-0.59766-0.40625-1.0469 0-0.44531 0.12891-0.79688 0.39062-1.0469 0.26953-0.25 0.63281-0.375 1.0938-0.375 0.42578 0 0.76562 0.13281 1.0156 0.39062 0.25781 0.25 0.39062 0.58984 0.39062 1.0156zm-0.89062-0.28125c0-0.16406-0.046875-0.29688-0.14062-0.39062-0.09375-0.10156-0.21875-0.15625-0.375-0.15625-0.16797 0-0.30469 0.046875-0.40625 0.14062-0.10547 0.09375-0.16797 0.23047-0.1875 0.40625z"/>
  </symbol>
  <symbol id="l" overflow="visible">
   <path d="m1.625-1.2188c-0.17969 0-0.3125 0.03125-0.40625 0.09375s-0.14062 0.15234-0.14062 0.26562c0 0.11719 0.035156 0.20312 0.10938 0.26562 0.070312 0.0625 0.17578 0.09375 0.3125 0.09375 0.15625 0 0.28906-0.054688 0.40625-0.17188 0.11328-0.125 0.17188-0.26953 0.17188-0.4375v-0.10938zm1.3125-0.32812v1.5469h-0.85938v-0.40625c-0.11719 0.16797-0.24609 0.28906-0.39062 0.35938-0.14844 0.070312-0.32422 0.10938-0.53125 0.10938-0.28125 0-0.51172-0.078125-0.6875-0.23438-0.16797-0.16406-0.25-0.37891-0.25-0.64062 0-0.3125 0.10156-0.53906 0.3125-0.6875 0.21875-0.15625 0.5625-0.23438 1.0312-0.23438h0.51562v-0.0625c0-0.13281-0.058594-0.23438-0.17188-0.29688-0.10547-0.0625-0.27344-0.09375-0.5-0.09375-0.1875 0-0.35938 0.023438-0.51562 0.0625-0.15625 0.03125-0.30469 0.085938-0.4375 0.15625v-0.65625c0.17578-0.050781 0.35938-0.085938 0.54688-0.10938 0.1875-0.019531 0.375-0.03125 0.5625-0.03125 0.48828 0 0.83594 0.10156 1.0469 0.29688 0.21875 0.1875 0.32812 0.49609 0.32812 0.92188z"/>
  </symbol>
  <symbol id="d" overflow="visible">
   <path d="m1.3594-3.4688v0.76562h0.89062v0.625h-0.89062v1.1406c0 0.125 0.019531 0.21094 0.0625 0.25 0.050781 0.042969 0.15625 0.0625 0.3125 0.0625h0.4375v0.625h-0.73438c-0.34375 0-0.58984-0.066406-0.73438-0.20312-0.13672-0.14453-0.20312-0.39062-0.20312-0.73438v-1.1406h-0.4375v-0.625h0.4375v-0.76562z"/>
  </symbol>
  <symbol id="k" overflow="visible">
   <path d="m2.25-2.3125v-1.4375h0.875v3.75h-0.875v-0.39062c-0.11719 0.15625-0.24609 0.27344-0.39062 0.34375-0.14844 0.070312-0.3125 0.10938-0.5 0.10938-0.33594 0-0.60938-0.12891-0.82812-0.39062-0.21094-0.25781-0.3125-0.59766-0.3125-1.0156 0-0.41406 0.10156-0.75391 0.3125-1.0156 0.21875-0.26953 0.49219-0.40625 0.82812-0.40625 0.1875 0 0.35156 0.039063 0.5 0.10938 0.14453 0.074219 0.27344 0.1875 0.39062 0.34375zm-0.5625 1.75c0.17578 0 0.3125-0.066406 0.40625-0.20312 0.10156-0.13281 0.15625-0.32812 0.15625-0.57812 0-0.25781-0.054688-0.45703-0.15625-0.59375-0.09375-0.13281-0.23047-0.20312-0.40625-0.20312-0.1875 0-0.33594 0.070313-0.4375 0.20312-0.09375 0.13672-0.14062 0.33594-0.14062 0.59375 0 0.25 0.046875 0.44531 0.14062 0.57812 0.10156 0.13672 0.25 0.20312 0.4375 0.20312z"/>
  </symbol>
  <symbol id="j" overflow="visible">
   <path d="m1.8594-0.5625c0.17578 0 0.3125-0.066406 0.40625-0.20312 0.10156-0.13281 0.15625-0.32812 0.15625-0.57812 0-0.25781-0.054687-0.45703-0.15625-0.59375-0.09375-0.13281-0.23047-0.20312-0.40625-0.20312-0.1875 0-0.33594 0.070313-0.4375 0.20312-0.09375 0.13672-0.14062 0.33594-0.14062 0.59375 0 0.25 0.046875 0.44531 0.14062 0.57812 0.10156 0.13672 0.25 0.20312 0.4375 0.20312zm-0.57812-1.75c0.11328-0.15625 0.24219-0.26953 0.39062-0.34375 0.14453-0.070312 0.3125-0.10938 0.5-0.10938 0.33203 0 0.60156 0.13672 0.8125 0.40625 0.21875 0.26172 0.32812 0.60156 0.32812 1.0156 0 0.41797-0.10938 0.75781-0.32812 1.0156-0.21094 0.26172-0.48047 0.39062-0.8125 0.39062-0.1875 0-0.35547-0.039062-0.5-0.10938-0.14844-0.070313-0.27734-0.1875-0.39062-0.34375v0.39062h-0.85938v-3.75h0.85938z"/>
  </symbol>
  <symbol id="i" overflow="visible">
   <path d="m0.0625-2.7031h0.85938l0.73438 1.8281 0.60938-1.8281h0.85938l-1.125 2.9531c-0.11719 0.30078-0.25 0.50781-0.40625 0.625-0.15625 0.125-0.35547 0.1875-0.59375 0.1875h-0.5v-0.5625h0.26562c0.14453 0 0.25-0.027344 0.3125-0.078125 0.070313-0.042969 0.125-0.125 0.15625-0.25l0.03125-0.0625z"/>
  </symbol>
  <symbol id="e" overflow="visible">
   <path d="m1.8906-2.2031c0.14453 0 0.25391-0.03125 0.32812-0.09375 0.082031-0.070313 0.125-0.17188 0.125-0.29688 0-0.11328-0.042969-0.20312-0.125-0.26562-0.074219-0.070313-0.18359-0.10938-0.32812-0.10938h-0.51562v0.76562zm0.03125 1.5781c0.1875 0 0.32812-0.039062 0.42188-0.125 0.09375-0.082031 0.14062-0.20312 0.14062-0.35938s-0.046875-0.26953-0.14062-0.34375c-0.09375-0.082031-0.23438-0.125-0.42188-0.125h-0.54688v0.95312zm0.875-1.2969c0.19531 0.054687 0.34766 0.15625 0.45312 0.3125 0.11328 0.15625 0.17188 0.35156 0.17188 0.57812 0 0.34375-0.12109 0.60547-0.35938 0.78125-0.23047 0.16797-0.58594 0.25-1.0625 0.25h-1.5469v-3.5938h1.3906c0.5 0 0.85938 0.078125 1.0781 0.23438 0.22656 0.14844 0.34375 0.38672 0.34375 0.71875 0 0.16797-0.042969 0.3125-0.125 0.4375-0.085937 0.125-0.19922 0.21875-0.34375 0.28125z"/>
  </symbol>
  <symbol id="h" overflow="visible">
   <path d="m0.39062-1.0469v-1.6562h0.85938v0.26562 0.5625 0.4375c0 0.21875 0.003906 0.375 0.015625 0.46875 0.007813 0.09375 0.03125 0.16406 0.0625 0.20312 0.03125 0.0625 0.070313 0.10938 0.125 0.14062 0.0625 0.03125 0.12891 0.046875 0.20312 0.046875 0.17578 0 0.31641-0.066406 0.42188-0.20312 0.10156-0.14453 0.15625-0.33594 0.15625-0.57812v-1.3438h0.85938v2.7031h-0.85938v-0.39062c-0.125 0.15625-0.26172 0.27344-0.40625 0.34375-0.14844 0.070312-0.30859 0.10938-0.48438 0.10938-0.3125 0-0.55469-0.09375-0.71875-0.28125-0.15625-0.1875-0.23438-0.46094-0.23438-0.82812z"/>
  </symbol>
  <symbol id="g" overflow="visible">
   <path d="m3.125-1.6406v1.6406h-0.85938v-1.2656c0-0.22656-0.007813-0.38281-0.015625-0.46875-0.011719-0.09375-0.03125-0.16016-0.0625-0.20312-0.03125-0.050781-0.078125-0.09375-0.14062-0.125-0.054687-0.03125-0.11719-0.046875-0.1875-0.046875-0.17969 0-0.32031 0.070313-0.42188 0.20312-0.10547 0.13672-0.15625 0.32812-0.15625 0.57812v1.3281h-0.85938v-2.7031h0.85938v0.39062c0.125-0.15625 0.25781-0.26953 0.40625-0.34375 0.14453-0.070312 0.30469-0.10938 0.48438-0.10938 0.3125 0 0.54688 0.10156 0.70312 0.29688 0.16406 0.1875 0.25 0.46484 0.25 0.82812z"/>
  </symbol>
  <symbol id="b" overflow="visible">
   <path d="m1.7031-2.1406c-0.19922 0-0.35156 0.070313-0.45312 0.20312-0.09375 0.13672-0.14062 0.33594-0.14062 0.59375 0 0.26172 0.046875 0.46094 0.14062 0.59375 0.10156 0.13672 0.25391 0.20312 0.45312 0.20312 0.1875 0 0.32812-0.066406 0.42188-0.20312 0.10156-0.13281 0.15625-0.33203 0.15625-0.59375 0-0.25781-0.054688-0.45703-0.15625-0.59375-0.09375-0.13281-0.23438-0.20312-0.42188-0.20312zm0-0.625c0.45703 0 0.81641 0.125 1.0781 0.375 0.26953 0.25 0.40625 0.60156 0.40625 1.0469 0 0.4375-0.13672 0.78125-0.40625 1.0312-0.26172 0.25-0.62109 0.375-1.0781 0.375-0.46875 0-0.83594-0.125-1.0938-0.375-0.26172-0.25-0.39062-0.59375-0.39062-1.0312 0-0.44531 0.12891-0.79688 0.39062-1.0469 0.25781-0.25 0.625-0.375 1.0938-0.375z"/>
  </symbol>
  <symbol id="f" overflow="visible">
   <path d="m2.5312-2.6094v0.65625c-0.1875-0.082031-0.37109-0.14062-0.54688-0.17188-0.16797-0.039062-0.32812-0.0625-0.48438-0.0625-0.16797 0-0.29297 0.023438-0.375 0.0625-0.074219 0.042969-0.10938 0.10547-0.10938 0.1875 0 0.0625 0.03125 0.11719 0.09375 0.15625 0.0625 0.042969 0.17188 0.070312 0.32812 0.078125l0.14062 0.03125c0.44531 0.054687 0.74219 0.14844 0.89062 0.28125 0.15625 0.125 0.23438 0.32422 0.23438 0.59375 0 0.29297-0.10938 0.51172-0.32812 0.65625-0.21094 0.13672-0.52344 0.20312-0.9375 0.20312-0.17969 0-0.36719-0.015625-0.5625-0.046875-0.1875-0.019531-0.38281-0.054688-0.57812-0.10938v-0.65625c0.16406 0.085938 0.33594 0.14844 0.51562 0.1875 0.1875 0.042969 0.375 0.0625 0.5625 0.0625 0.16406 0 0.28906-0.019531 0.375-0.0625 0.09375-0.050781 0.14062-0.125 0.14062-0.21875 0-0.070312-0.03125-0.12891-0.09375-0.17188-0.0625-0.039063-0.17969-0.070313-0.34375-0.09375l-0.15625-0.015625c-0.38672-0.050781-0.65625-0.14062-0.8125-0.26562-0.15625-0.13281-0.23438-0.33203-0.23438-0.59375 0-0.28125 0.097656-0.48828 0.29688-0.625 0.19531-0.14453 0.5-0.21875 0.90625-0.21875 0.15625 0 0.32031 0.015625 0.5 0.046875 0.17578 0.023438 0.36719 0.058594 0.57812 0.10938z"/>
  </symbol>
  <symbol id="s" overflow="visible">
   <path d="m2.1875-3.75v0.5625h-0.46875c-0.125 0-0.21484 0.027344-0.26562 0.078125-0.042969 0.042969-0.0625 0.11719-0.0625 0.21875v0.1875h0.73438v0.625h-0.73438v2.0781h-0.875v-2.0781h-0.42188v-0.625h0.42188v-0.1875c0-0.28906 0.082031-0.50391 0.25-0.64062 0.16406-0.14453 0.42188-0.21875 0.76562-0.21875z"/>
  </symbol>
  <symbol id="r" overflow="visible">
   <path d="m2.9219-2.25c0.10156-0.16406 0.22656-0.28906 0.375-0.375 0.15625-0.09375 0.32031-0.14062 0.5-0.14062 0.3125 0 0.54688 0.10156 0.70312 0.29688 0.16406 0.1875 0.25 0.46484 0.25 0.82812v1.6406h-0.85938v-1.4062-0.0625-0.09375c0-0.19531-0.03125-0.33594-0.09375-0.42188-0.054687-0.082031-0.14062-0.125-0.26562-0.125-0.16797 0-0.29688 0.070313-0.39062 0.20312-0.085937 0.13672-0.125 0.32812-0.125 0.57812v1.3281h-0.875v-1.4062c0-0.30078-0.027344-0.49219-0.078125-0.57812-0.042969-0.082031-0.13281-0.125-0.26562-0.125-0.16797 0-0.29688 0.070313-0.39062 0.20312-0.085938 0.13672-0.125 0.32812-0.125 0.57812v1.3281h-0.875v-2.7031h0.875v0.39062c0.10156-0.14453 0.22266-0.25391 0.35938-0.32812 0.13281-0.082031 0.28516-0.125 0.45312-0.125 0.1875 0 0.35156 0.046875 0.5 0.14062 0.14453 0.085938 0.25391 0.21094 0.32812 0.375z"/>
  </symbol>
  <symbol id="q" overflow="visible">
   <path d="m3.125-1.6406v1.6406h-0.85938v-1.25c0-0.23828-0.007813-0.39844-0.015625-0.48438-0.011719-0.09375-0.03125-0.16016-0.0625-0.20312-0.03125-0.050781-0.078125-0.09375-0.14062-0.125-0.054687-0.03125-0.11719-0.046875-0.1875-0.046875-0.17969 0-0.32031 0.070313-0.42188 0.20312-0.10547 0.13672-0.15625 0.32812-0.15625 0.57812v1.3281h-0.85938v-3.75h0.85938v1.4375c0.125-0.15625 0.25781-0.26953 0.40625-0.34375 0.14453-0.070312 0.30469-0.10938 0.48438-0.10938 0.3125 0 0.54688 0.10156 0.70312 0.29688 0.16406 0.1875 0.25 0.46484 0.25 0.82812z"/>
  </symbol>
  <symbol id="p" overflow="visible">
   <path d="m0.45312-3.5938h1.0312l1.3125 2.4688v-2.4688h0.875v3.5938h-1.0312l-1.3125-2.4688v2.4688h-0.875z"/>
  </symbol>
  <symbol id="o" overflow="visible">
   <path d="m0.45312-3.5938h1.5469c0.45703 0 0.80469 0.10547 1.0469 0.3125 0.25 0.19922 0.375 0.48438 0.375 0.85938s-0.125 0.66797-0.375 0.875c-0.24219 0.19922-0.58984 0.29688-1.0469 0.29688h-0.625v1.25h-0.92188zm0.92188 0.67188v1h0.51562c0.1875 0 0.32812-0.039063 0.42188-0.125 0.09375-0.09375 0.14062-0.21875 0.14062-0.375 0-0.16406-0.046875-0.28906-0.14062-0.375-0.09375-0.082031-0.23438-0.125-0.42188-0.125z"/>
  </symbol>
  <symbol id="n" overflow="visible">
   <path d="m0.42188-2.7031h0.85938v2.6562c0 0.36328-0.089844 0.64062-0.26562 0.82812-0.17969 0.1875-0.42969 0.28125-0.75 0.28125h-0.42188v-0.5625h0.14062c0.16406 0 0.28125-0.039062 0.34375-0.10938 0.0625-0.074219 0.09375-0.21875 0.09375-0.4375zm0-1.0469h0.85938v0.70312h-0.85938z"/>
  </symbol>
  <symbol id="m" overflow="visible">
   <path d="m2.5938-2.6094v0.70312c-0.11719-0.082031-0.23438-0.14062-0.35938-0.17188-0.11719-0.039063-0.23438-0.0625-0.35938-0.0625-0.24219 0-0.42969 0.074219-0.5625 0.21875-0.13672 0.13672-0.20312 0.32812-0.20312 0.57812s0.066406 0.44922 0.20312 0.59375c0.13281 0.13672 0.32031 0.20312 0.5625 0.20312 0.13281 0 0.25781-0.019531 0.375-0.0625 0.125-0.039063 0.23828-0.097656 0.34375-0.17188v0.70312c-0.13672 0.054688-0.27344 0.085938-0.40625 0.10938-0.13672 0.019531-0.27734 0.03125-0.42188 0.03125-0.49219 0-0.87109-0.125-1.1406-0.375-0.27344-0.25-0.40625-0.59375-0.40625-1.0312 0-0.44531 0.13281-0.79688 0.40625-1.0469 0.26953-0.25 0.64844-0.375 1.1406-0.375 0.14453 0 0.28516 0.015625 0.42188 0.046875 0.13281 0.023438 0.26953 0.058594 0.40625 0.10938z"/>
  </symbol>
 </defs>
 <g>
  <path d="m465.01 397.27c-28.965-10.863-53.742-30.031-71.664-55.43-18.305-25.945-27.977-56.508-27.977-88.387 0-41.543 16.336-80.461 46-109.58 6.7812-6.6562 8.8711-16.75 5.293-25.555-3.5664-8.7695-12.055-14.531-21.516-14.609-0.27344-0.003907-0.50781-0.007813-0.74219-0.007813-47.043 0-91.27 18.32-124.54 51.586-33.266 33.266-51.582 77.492-51.582 124.54s18.32 91.27 51.582 124.54c33.266 33.262 77.492 51.586 124.54 51.586 25.039 0 49.25-5.1602 71.957-15.336 8.6719-3.8867 14.141-12.621 13.844-22.121-0.29297-9.5039-6.2969-17.883-15.195-21.219z"/>
  <use x="70" y="574.816406" xlink:href="#t"/>
  <use x="73.625" y="574.816406" xlink:href="#c"/>
  <use x="76.058594" y="574.816406" xlink:href="#a"/>
  <use x="79.410156" y="574.816406" xlink:href="#l"/>
  <use x="82.742187" y="574.816406" xlink:href="#d"/>
  <use x="85.105469" y="574.816406" xlink:href="#a"/>
  <use x="88.453125" y="574.816406" xlink:href="#k"/>
  <use x="93.707031" y="574.816406" xlink:href="#j"/>
  <use x="97.242188" y="574.816406" xlink:href="#i"/>
  <use x="102.183594" y="574.816406" xlink:href="#e"/>
  <use x="105.945312" y="574.816406" xlink:href="#c"/>
  <use x="108.382812" y="574.816406" xlink:href="#h"/>
  <use x="111.898438" y="574.816406" xlink:href="#g"/>
  <use x="115.414062" y="574.816406" xlink:href="#b"/>
  <use x="120.527344" y="574.816406" xlink:href="#e"/>
  <use x="124.292969" y="574.816406" xlink:href="#b"/>
  <use x="127.683594" y="574.816406" xlink:href="#f"/>
  <use x="130.625" y="574.816406" xlink:href="#f"/>
  <use x="133.5625" y="574.816406" xlink:href="#a"/>
  <use x="70" y="579.753906" xlink:href="#s"/>
  <use x="72.148437" y="579.753906" xlink:href="#c"/>
  <use x="74.585938" y="579.753906" xlink:href="#b"/>
  <use x="77.976562" y="579.753906" xlink:href="#r"/>
  <use x="84.84375" y="579.753906" xlink:href="#d"/>
  <use x="87.203125" y="579.753906" xlink:href="#q"/>
  <use x="90.71875" y="579.753906" xlink:href="#a"/>
  <use x="95.789062" y="579.753906" xlink:href="#p"/>
  <use x="99.921875" y="579.753906" xlink:href="#b"/>
  <use x="103.316406" y="579.753906" xlink:href="#h"/>
  <use x="106.832031" y="579.753906" xlink:href="#g"/>
  <use x="112.066406" y="579.753906" xlink:href="#o"/>
  <use x="115.6875" y="579.753906" xlink:href="#c"/>
  <use x="118.121094" y="579.753906" xlink:href="#b"/>
  <use x="121.515625" y="579.753906" xlink:href="#n"/>
  <use x="123.207031" y="579.753906" xlink:href="#a"/>
  <use x="126.558594" y="579.753906" xlink:href="#m"/>
  <use x="129.484375" y="579.753906" xlink:href="#d"/>
 </g>
</svg>
